<svg width="188" height="96" viewBox="0 0 188 96" fill="none" xmlns="http://www.w3.org/2000/svg">
<g clip-path="url(#clip0_425_87)">
<mask id="mask0_425_87" style="mask-type:luminance" maskUnits="userSpaceOnUse" x="0" y="0" width="188" height="96">
<path d="M187.238 0.817139H0.761963V95.0311H187.238V0.817139Z" fill="white"/>
</mask>
<g mask="url(#mask0_425_87)">
<path d="M187.238 0.817139H0.761963V95.0311H187.238V0.817139Z" fill="white"/>
<path d="M33.9313 17.1882C33.8214 16.9291 33.6019 16.7642 33.4044 16.5994C32.1532 15.6807 30.7482 14.9975 29.2994 14.5736L27.3895 14.3851C27.2139 16.0811 27.0383 17.8006 27.2578 19.4731C27.3456 20.2268 27.5212 20.9807 27.9822 21.546C28.0921 21.6873 28.2238 21.8052 28.3775 21.8523C28.5092 21.8757 28.6189 21.8523 28.7506 21.8286C30.6165 21.3575 32.3508 20.2033 33.5582 18.6015C33.8214 18.2011 34.1069 17.6594 33.9313 17.1882Z" fill="#F3982C"/>
<path d="M26.5774 11.6763C27.2683 11.6763 27.8287 11.0752 27.8287 10.3336C27.8287 9.59211 27.2683 8.99097 26.5774 8.99097C25.8863 8.99097 25.326 9.59211 25.326 10.3336C25.326 11.0752 25.8863 11.6763 26.5774 11.6763Z" fill="#F7A430"/>
<path d="M35.1166 10.3336C34.9849 9.95674 34.8093 9.57986 34.4801 9.36784C34.0191 9.0852 33.4263 9.27363 32.9654 9.55631C31.9776 10.1687 31.275 11.1816 30.4629 12.0296C29.6506 12.8776 27.9604 14.1496 27.3895 14.3852C27.4554 14.762 32.0215 15.5865 33.4044 17.0941C34.3264 18.1069 34.6337 19.6381 34.3703 21.0278C35.3142 20.2505 35.7093 18.9549 35.9068 17.7065C36.2582 15.2332 35.9948 12.6656 35.1166 10.3336Z" fill="#FFCC33"/>
<path d="M29.1897 3.43181C26.9725 2.67803 24.5798 2.96068 22.2749 3.21979C19.8162 3.50247 17.3796 3.78513 14.921 4.09136C13.6258 4.23268 12.2868 4.39758 11.0574 3.92647C9.8281 3.45534 8.75247 2.18335 8.90614 0.817139C8.48905 2.20691 8.11586 3.71445 8.48905 5.1278C9.01588 7.15357 10.9038 8.35489 12.9014 8.68466C7.36949 15.6806 2.95716 41.0029 21.3528 57.6565C8.11586 40.2963 10.5525 24.2783 11.5404 19.6379C12.0014 17.4709 12.8794 14.974 14.2185 12.7598C17.0942 8.00157 21.7699 6.70601 21.7699 6.70601C25.2383 5.69312 28.3995 5.85801 29.6945 6.28201C30.9897 6.70601 32.9435 7.50689 33.4044 8.87311L33.5361 8.73179C33.4264 6.21135 31.4068 4.18558 29.1897 3.43181Z" fill="#4163AE"/>
<path d="M41.7022 49.4829C38.0144 44.5832 32.5922 41.6858 27.2359 39.3068L24.2944 38.2468C25.8529 42.2042 29.0799 45.0308 32.3508 47.4098C35.6215 49.789 39.1119 51.9325 41.6585 55.2303C44.2048 58.528 45.5877 63.3333 43.9195 67.2201C46.9268 61.8024 45.4121 54.3824 41.7022 49.4829Z" fill="#CCDB2A"/>
<path d="M25.9408 53.7229C27.1481 63.3333 22.6699 74.0041 15.4478 78.6915C19.7064 78.2205 23.8335 75.017 26.0943 70.4236C28.3555 65.8304 28.7067 59.9885 26.9725 55.3011" fill="#02B3B1"/>
<path d="M26.0066 53.8169C29.958 64.8174 29.5627 78.3147 24.3383 87.572C29.5846 86.6768 33.1848 80.5996 33.5142 74.1925C33.8213 67.7854 29.6726 57.1382 25.9408 53.6992" fill="#00B3DC"/>
<path d="M28.1141 53.8406C34.4582 66.4428 37.5972 80.9765 37.0485 95.0156C40.912 89.4565 41.4388 81.2826 39.551 74.0512C37.6631 66.8196 33.6241 60.4125 29.0799 54.8535" fill="#A274B2"/>
<path d="M34.9191 50.8255C32.7678 48.7761 30.3532 47.1508 28.3336 44.9131C26.314 42.6753 24.6895 39.5895 24.909 36.3623L24.7334 33.9832C22.5602 38.765 24.1847 44.96 27.0603 49.2945C29.9581 53.6285 33.9314 56.7143 37.3559 60.4596C40.7803 64.2051 43.8315 69.1281 43.8096 74.593C44.2707 65.6891 40.8461 56.5024 34.9191 50.8255Z" fill="#E92D7B"/>
<path d="M25.7652 24.2313C23.2626 24.3021 20.7162 23.5718 18.7844 21.8994C15.9965 26.7753 14.7014 34.7371 15.0526 40.2019C15.4038 45.9967 17.9722 52.4744 21.6822 56.7378C18.7186 46.939 19.8162 32.3345 25.7652 24.2313Z" fill="#6DCDE1"/>
<path d="M16.9844 20.9806C15.4916 19.3553 14.6135 17.1647 14.7232 14.9976C12.6159 19.8735 11.5182 25.197 11.5622 30.497C11.628 38.1055 14.0427 45.6668 18.3892 51.909C16.0843 46.7739 14.4379 41.3089 14.1525 35.7028C13.8671 30.6854 14.7232 25.5033 16.9844 20.9806Z" fill="#2BA7DF"/>
<path d="M22.2527 7.13C19.5967 9.22646 18.1478 12.3593 18.5869 15.1154C19.0259 17.8714 21.3089 20.2033 24.4481 21.0278C22.4944 21.9935 20.2114 21.2868 18.8503 20.062C14.2623 15.9633 18.9161 8.80246 22.1432 7.15358" fill="#02B3B1"/>
<path d="M23.7455 65.3591C23.2846 58.9756 19.1577 55.7014 14.8331 54.0525C12.4843 53.1575 9.95982 53.0632 7.50119 52.6627C5.04258 52.2624 2.49616 51.4851 0.761963 49.6006C2.21079 55.4659 3.92304 61.7552 8.42318 65.4299C11.9355 68.3036 16.8747 69.0102 20.9577 67.2436C21.2211 67.1259 21.5065 66.9846 21.5943 66.702C21.6601 66.4899 21.6162 66.2544 21.5504 66.0423C20.4968 62.5325 17.4015 60.1064 14.1526 58.952C16.5454 58.5517 19.9479 59.0464 23.7236 65.3591" fill="#3DB54A"/>
<path d="M3.85706 54.5001C5.02051 57.5388 7.08399 60.1299 9.47675 62.1322C11.8915 64.158 14.6574 65.642 17.4892 66.8904C14.2183 67.3849 10.7719 66.3486 8.20354 64.0873C5.65711 61.8259 4.05462 58.3867 3.87901 54.8535" fill="#8BC441"/>
<path d="M42.6682 35.0197C40.2096 29.6018 34.963 25.3149 29.5408 26.0215L28.8384 26.5162C32.0653 27.1522 35.9508 28.2122 39.2217 36.5037C34.524 29.7668 30.7044 27.7881 27.3018 27.5997L27.0164 27.7881C24.0091 28.4478 22.4724 32.5936 23.3504 35.8442C24.2505 39.0947 26.8847 41.4034 29.6727 42.8166C32.4606 44.23 35.5118 44.96 38.3437 46.2556C41.1754 47.5748 43.9195 49.6477 45.1268 52.7806C45.3682 46.7505 45.1487 40.4374 42.6682 35.0197Z" fill="#8BC441"/>
<path d="M27.4775 31.2273C26.292 31.9104 25.5016 33.3238 25.5238 34.7607C25.5675 36.2918 26.5115 37.7523 27.8506 38.2939C26.5335 36.2683 26.4018 33.4415 27.4775 31.2273Z" fill="#CCDB2A"/>
<path d="M61.7307 44.7757L58.8848 37.4422C58.68 36.9418 58.4751 36.3099 58.2702 35.5463C58.1723 35.9237 58.0699 36.2748 57.9631 36.5995C57.865 36.9242 57.7671 37.214 57.669 37.4685L54.8367 44.7757H61.7307ZM67.3552 51.8195H65.1641C64.9149 51.8195 64.71 51.758 64.5496 51.6351C64.3893 51.5122 64.2735 51.3542 64.2022 51.1611L62.5055 46.7769H54.0484L52.3517 51.1611C52.2893 51.3279 52.1736 51.4816 52.0042 51.6219C51.835 51.7536 51.6301 51.8195 51.3896 51.8195H49.1985L56.8407 32.9131H59.7132L67.3552 51.8195ZM75.5891 42.0239C76.3195 42.0239 76.9609 41.9361 77.5131 41.7607C78.0741 41.5851 78.5419 41.3392 78.916 41.0233C79.2899 40.6986 79.5706 40.3169 79.7577 39.878C79.9447 39.4302 80.0381 38.9387 80.0381 38.4033C80.0381 37.315 79.673 36.4942 78.9426 35.9411C78.2212 35.3883 77.1346 35.1118 75.6828 35.1118H72.9973V42.0239H75.5891ZM84.5406 51.8195H82.0022C81.4944 51.8195 81.1248 51.6219 80.8932 51.2271L76.1503 44.6703C75.9988 44.4508 75.8341 44.2973 75.656 44.2095C75.4778 44.1129 75.2106 44.0647 74.8543 44.0647H72.9973V51.8195H70.1514V32.9131H75.6828C76.9207 32.9131 77.9852 33.0403 78.8758 33.2948C79.7753 33.5406 80.5146 33.8962 81.0937 34.3612C81.6815 34.8177 82.1135 35.3706 82.3897 36.0202C82.6747 36.6698 82.8172 37.3982 82.8172 38.2058C82.8172 38.8641 82.7147 39.4829 82.5099 40.0621C82.305 40.6416 82.0022 41.1638 81.6014 41.6289C81.2095 42.0854 80.7285 42.4803 80.1584 42.8139C79.5883 43.1475 78.9426 43.4019 78.2212 43.5775C78.5774 43.7882 78.8847 44.0823 79.1431 44.4597L84.5406 51.8195ZM99.8889 35.2566H93.7966V51.8195H90.9643V35.2566H84.8452V32.9131H99.8889V35.2566ZM105.908 51.8195H103.049V32.9131H105.908V51.8195ZM120.97 35.9939C120.881 36.1431 120.787 36.2529 120.69 36.323C120.592 36.3932 120.467 36.4283 120.316 36.4283C120.156 36.4283 119.973 36.3581 119.768 36.2178C119.564 36.0685 119.305 35.9062 118.993 35.7306C118.69 35.5463 118.325 35.3838 117.897 35.2435C117.47 35.0942 116.958 35.0196 116.361 35.0196C115.8 35.0196 115.305 35.0942 114.878 35.2435C114.46 35.3838 114.107 35.5813 113.823 35.8359C113.537 36.0817 113.319 36.3758 113.168 36.7181C113.026 37.0515 112.954 37.4158 112.954 37.8109C112.954 38.3199 113.083 38.7412 113.342 39.0748C113.609 39.4083 113.956 39.6936 114.384 39.9305C114.812 40.1676 115.297 40.3738 115.84 40.5493C116.384 40.7249 116.94 40.9093 117.51 41.1024C118.08 41.2867 118.637 41.5017 119.18 41.7475C119.724 41.9931 120.209 42.3048 120.637 42.6823C121.064 43.0508 121.407 43.5073 121.665 44.0515C121.932 44.5869 122.066 45.2452 122.066 46.0265C122.066 46.8603 121.919 47.6415 121.625 48.37C121.34 49.0985 120.921 49.7348 120.369 50.2791C119.817 50.8233 119.136 51.2534 118.325 51.5694C117.523 51.8765 116.61 52.0302 115.587 52.0302C114.972 52.0302 114.374 51.9688 113.796 51.8458C113.217 51.7317 112.67 51.5694 112.152 51.3587C111.636 51.1392 111.151 50.8802 110.697 50.5819C110.251 50.2746 109.85 49.9323 109.494 49.5549L110.308 48.212C110.389 48.1066 110.483 48.0189 110.59 47.9486C110.705 47.8784 110.834 47.8433 110.976 47.8433C111.164 47.8433 111.377 47.9398 111.618 48.1329C111.868 48.326 112.171 48.5412 112.526 48.7781C112.892 49.0064 113.324 49.217 113.823 49.41C114.331 49.6031 114.945 49.6997 115.667 49.6997C116.255 49.6997 116.779 49.6252 117.243 49.476C117.706 49.318 118.094 49.0985 118.405 48.8176C118.726 48.528 118.97 48.1812 119.14 47.7776C119.309 47.3738 119.394 46.9262 119.394 46.4346C119.394 45.8817 119.264 45.4296 119.007 45.0785C118.748 44.7275 118.405 44.4334 117.978 44.1963C117.55 43.9594 117.065 43.7574 116.522 43.5907C115.978 43.424 115.422 43.2528 114.851 43.0772C114.281 42.8928 113.724 42.6823 113.182 42.4452C112.637 42.2083 112.152 41.901 111.725 41.5236C111.297 41.1374 110.954 40.659 110.697 40.0885C110.438 39.5093 110.308 38.7982 110.308 37.9557C110.308 37.2797 110.442 36.6258 110.709 35.9939C110.976 35.3619 111.365 34.8046 111.872 34.3219C112.388 33.8302 113.021 33.4396 113.769 33.15C114.518 32.8517 115.373 32.7024 116.335 32.7024C117.412 32.7024 118.401 32.8736 119.301 33.2159C120.209 33.5493 120.997 34.0322 121.665 34.6642L120.97 35.9939ZM139.059 35.2566H132.967V51.8195H130.134V35.2566H124.015V32.9131H139.059V35.2566ZM147.657 42.0239C148.388 42.0239 149.029 41.9361 149.581 41.7607C150.142 41.5851 150.61 41.3392 150.984 41.0233C151.358 40.6986 151.638 40.3169 151.825 39.878C152.012 39.4302 152.106 38.9387 152.106 38.4033C152.106 37.315 151.741 36.4942 151.011 35.9411C150.289 35.3883 149.202 35.1118 147.751 35.1118H145.065V42.0239H147.657ZM156.608 51.8195H154.07C153.562 51.8195 153.192 51.6219 152.961 51.2271L148.218 44.6703C148.067 44.4508 147.901 44.2973 147.724 44.2095C147.546 44.1129 147.278 44.0647 146.922 44.0647H145.065V51.8195H142.22V32.9131H147.751C148.989 32.9131 150.053 33.0403 150.943 33.2948C151.843 33.5406 152.583 33.8962 153.161 34.3612C153.749 34.8177 154.181 35.3706 154.458 36.0202C154.742 36.6698 154.885 37.3982 154.885 38.2058C154.885 38.8641 154.783 39.4829 154.578 40.0621C154.373 40.6416 154.07 41.1638 153.669 41.6289C153.278 42.0854 152.797 42.4803 152.226 42.8139C151.656 43.1475 151.011 43.4019 150.289 43.5775C150.645 43.7882 150.953 44.0823 151.211 44.4597L156.608 51.8195ZM171.382 49.5417L171.368 51.8195H159.477V32.9131H171.368V35.1907H162.336V41.1813H169.604V43.38H162.336V49.5417H171.382ZM187.203 49.5417L187.191 51.8195H175.3V32.9131H187.191V35.1907H178.159V41.1813H185.427V43.38H178.159V49.5417H187.203Z" fill="#231F20"/>
</g>
</g>
<defs>
<clipPath id="clip0_425_87">
<rect width="186.476" height="94.2139" fill="white" transform="translate(0.761963 0.817139)"/>
</clipPath>
</defs>
</svg>
