<svg width="362" height="184" viewBox="0 0 362 184" fill="none" xmlns="http://www.w3.org/2000/svg">
<g clip-path="url(#clip0_425_115)">
<mask id="mask0_425_115" style="mask-type:luminance" maskUnits="userSpaceOnUse" x="0" y="0" width="362" height="184">
<path d="M361.543 0.945946H0.457031V183.378H361.543V0.945946Z" fill="white"/>
</mask>
<g mask="url(#mask0_425_115)">
<path d="M361.543 0.945946H0.457031V183.378H361.543V0.945946Z" fill="white"/>
<path d="M64.6852 32.6463C64.4723 32.1446 64.0472 31.8252 63.6647 31.506C61.2421 29.7271 58.5215 28.4043 55.7159 27.5833L52.0178 27.2185C51.6778 30.5026 51.3378 33.8321 51.7628 37.0707C51.9328 38.53 52.2728 39.9899 53.1654 41.0845C53.3783 41.3581 53.6333 41.5863 53.9308 41.6776C54.1858 41.723 54.3984 41.6776 54.6534 41.6318C58.2665 40.7196 61.6246 38.4846 63.9626 35.383C64.4723 34.6075 65.0252 33.5586 64.6852 32.6463Z" fill="#F3982C"/>
<path d="M50.445 21.9732C51.7829 21.9732 52.868 20.8091 52.868 19.3732C52.868 17.9374 51.7829 16.7733 50.445 16.7733C49.1067 16.7733 48.022 17.9374 48.022 19.3732C48.022 20.8091 49.1067 21.9732 50.445 21.9732Z" fill="#F7A430"/>
<path d="M66.9801 19.3732C66.725 18.6434 66.385 17.9137 65.7475 17.5031C64.8549 16.9558 63.707 17.3207 62.8144 17.8681C60.9018 19.0539 59.5413 21.0153 57.9687 22.6572C56.3957 24.2993 53.123 26.7624 52.0176 27.2185C52.1451 27.9482 60.9868 29.5448 63.6645 32.464C65.45 34.4252 66.045 37.39 65.535 40.0811C67.3626 38.5758 68.1276 36.0672 68.5102 33.6498C69.1906 28.8605 68.6805 23.8887 66.9801 19.3732Z" fill="#FFCC33"/>
<path d="M55.5033 6.0089C51.2102 4.5493 46.577 5.09662 42.1138 5.59835C37.353 6.14572 32.6348 6.69306 27.874 7.28604C25.366 7.55969 22.7732 7.87898 20.3927 6.96674C18.0123 6.05447 15.9295 3.59143 16.227 0.945946C15.4194 3.63706 14.6968 6.55619 15.4194 9.29294C16.4396 13.2156 20.0952 15.5418 23.9634 16.1803C13.2515 29.7271 4.70766 78.7601 40.3283 111.008C14.6968 77.3919 19.4151 46.3754 21.3279 37.3899C22.2205 33.1937 23.9208 28.3588 26.5136 24.0713C32.0822 14.8576 41.1359 12.3489 41.1359 12.3489C47.8521 10.3876 53.9732 10.7069 56.4809 11.5279C58.989 12.3489 62.7721 13.8997 63.6646 16.5452L63.9197 16.2716C63.7071 11.3911 59.7965 7.46847 55.5033 6.0089Z" fill="#4163AE"/>
<path d="M79.7321 95.1806C72.5913 85.6929 62.092 80.0826 51.7202 75.476L46.0244 73.4234C49.0421 81.0863 55.2908 86.5597 61.6244 91.1663C67.9577 95.7733 74.7164 99.9238 79.6475 106.31C84.5782 112.695 87.2559 122 84.0257 129.526C89.8489 119.036 86.9159 104.668 79.7321 95.1806Z" fill="#CCDB2A"/>
<path d="M49.2125 103.391C51.5501 122 42.8788 142.663 28.894 151.739C37.1403 150.827 45.1318 144.624 49.5096 135.729C53.8882 126.835 54.5682 115.523 51.2101 106.447" fill="#02B3B1"/>
<path d="M49.34 103.573C56.9912 124.874 56.2258 151.009 46.1094 168.935C56.2683 167.202 63.2395 155.434 63.8774 143.027C64.4721 130.621 56.4387 110.004 49.2125 103.345" fill="#00B3DC"/>
<path d="M53.4209 103.619C65.7053 128.021 71.7836 156.164 70.721 183.348C78.2023 172.584 79.2224 156.756 75.5667 142.754C71.9111 128.751 64.0902 116.344 55.291 105.58" fill="#A274B2"/>
<path d="M66.5977 97.7804C62.432 93.8119 57.7563 90.6648 53.8457 86.3318C49.9351 81.9985 46.7895 76.0233 47.2145 69.7744L46.8745 65.1674C42.6663 74.4268 45.8119 86.4227 51.3801 94.8157C56.9913 103.208 64.685 109.183 71.3162 116.435C77.947 123.688 83.8553 133.221 83.8128 143.803C84.7057 126.562 78.0745 108.773 66.5977 97.7804Z" fill="#E92D7B"/>
<path d="M48.8728 46.2842C44.0267 46.4212 39.096 45.0071 35.3554 41.7688C29.9569 51.2102 27.4491 66.6272 28.1292 77.2091C28.8093 88.4298 33.7827 100.973 40.9665 109.229C35.2279 90.2545 37.3532 61.9748 48.8728 46.2842Z" fill="#6DCDE1"/>
<path d="M31.8699 39.9899C28.9794 36.8426 27.279 32.6008 27.4916 28.4045C23.4111 37.8461 21.2855 48.1543 21.3706 58.417C21.4981 73.1498 26.1739 87.7913 34.5903 99.8784C30.1271 89.9351 26.939 79.3529 26.3864 68.4974C25.8338 58.7819 27.4916 48.7474 31.8699 39.9899Z" fill="#2BA7DF"/>
<path d="M42.0711 13.17C36.928 17.2295 34.1226 23.2958 34.9728 28.6325C35.8229 33.9691 40.2435 38.4846 46.3222 40.0811C42.5391 41.9512 38.1184 40.5826 35.4828 38.211C26.5988 30.2745 35.6103 16.4084 41.859 13.2156" fill="#02B3B1"/>
<path d="M44.9616 125.923C44.069 113.562 36.0779 107.222 27.7039 104.029C23.1557 102.296 18.2674 102.113 13.5066 101.338C8.74587 100.563 3.81508 99.0574 0.457031 95.4084C3.26248 106.766 6.57803 118.944 15.2919 126.06C22.0931 131.624 31.6572 132.993 39.5634 129.572C40.0734 129.344 40.6259 129.07 40.7959 128.523C40.9234 128.112 40.8384 127.656 40.7109 127.246C38.6708 120.449 32.6773 115.752 26.3862 113.516C31.0195 112.741 37.608 113.699 44.9191 125.923" fill="#3DB54A"/>
<path d="M6.45068 104.896C8.70356 110.78 12.6992 115.797 17.3325 119.674C22.0082 123.597 27.3641 126.47 32.8474 128.888C26.5138 129.845 19.8404 127.839 14.8671 123.46C9.93625 119.081 6.83325 112.422 6.49319 105.58" fill="#8BC441"/>
<path d="M81.6027 67.1746C76.842 56.6836 66.6827 48.3825 56.1834 49.7508L54.8233 50.7087C61.0716 51.9403 68.5953 53.9929 74.929 70.048C65.8326 57.003 58.4364 53.1715 51.8477 52.8067L51.2952 53.1715C45.4719 54.4489 42.4963 62.4767 44.1964 68.771C45.9394 75.0653 51.0401 79.5357 56.4387 82.2722C61.837 85.009 67.7452 86.4227 73.2289 88.9313C78.7121 91.4857 84.0257 95.4996 86.3634 101.566C86.8309 89.8896 86.4059 77.6652 81.6027 67.1746Z" fill="#8BC441"/>
<path d="M52.1883 59.8311C49.8928 61.1539 48.3623 63.8908 48.4052 66.673C48.4898 69.6378 50.3178 72.4658 52.9108 73.5146C50.3603 69.5923 50.1053 64.1186 52.1883 59.8311Z" fill="#CCDB2A"/>
<path d="M118.515 86.0657L113.004 71.8652C112.608 70.8964 112.211 69.6727 111.814 68.1941C111.625 68.9249 111.426 69.6047 111.219 70.2335C111.03 70.8622 110.84 71.4234 110.65 71.9163L105.166 86.0657H118.515ZM129.406 99.7049H125.163C124.681 99.7049 124.284 99.586 123.973 99.348C123.663 99.11 123.439 98.804 123.301 98.4302L120.015 89.9407H103.639L100.354 98.4302C100.233 98.753 100.009 99.0507 99.6809 99.3224C99.3533 99.5773 98.9565 99.7049 98.4908 99.7049H94.248L109.046 63.0953H114.608L129.406 99.7049ZM145.35 80.7372C146.764 80.7372 148.006 80.5672 149.076 80.2275C150.162 79.8874 151.068 79.4114 151.792 78.7995C152.516 78.1708 153.06 77.4317 153.422 76.5818C153.784 75.7147 153.965 74.7631 153.965 73.7263C153.965 71.619 153.258 70.0297 151.843 68.9587C150.447 67.8881 148.342 67.3529 145.531 67.3529H140.331V80.7372H145.35ZM162.683 99.7049H157.768C156.785 99.7049 156.069 99.3224 155.621 98.5578L146.437 85.8615C146.143 85.4366 145.824 85.1393 145.479 84.9692C145.134 84.7823 144.617 84.6888 143.927 84.6888H140.331V99.7049H134.821V63.0953H145.531C147.928 63.0953 149.99 63.3416 151.714 63.8345C153.456 64.3104 154.888 64.9989 156.009 65.8994C157.147 66.7834 157.983 67.854 158.518 69.1119C159.07 70.3697 159.346 71.78 159.346 73.3438C159.346 74.6186 159.148 75.8168 158.751 76.9384C158.354 78.0604 157.768 79.0717 156.992 79.9722C156.233 80.8562 155.302 81.6209 154.198 82.2669C153.094 82.9129 151.843 83.4054 150.447 83.7455C151.136 84.1535 151.731 84.723 152.232 85.4538L162.683 99.7049ZM192.403 67.6333H180.606V99.7049H175.122V67.6333H163.273V63.0953H192.403V67.6333ZM204.059 99.7049H198.523V63.0953H204.059V99.7049ZM233.224 69.0608C233.052 69.3498 232.87 69.5623 232.682 69.6982C232.492 69.8341 232.249 69.902 231.957 69.902C231.647 69.902 231.293 69.7661 230.896 69.4944C230.5 69.2053 230 68.8911 229.395 68.5511C228.81 68.1941 228.102 67.8795 227.274 67.6077C226.446 67.3187 225.455 67.1742 224.3 67.1742C223.213 67.1742 222.255 67.3187 221.427 67.6077C220.618 67.8795 219.935 68.262 219.385 68.7549C218.832 69.2309 218.41 69.8003 218.116 70.4632C217.841 71.1089 217.702 71.8142 217.702 72.5792C217.702 73.5649 217.952 74.3806 218.453 75.0266C218.97 75.6723 219.643 76.2248 220.471 76.6836C221.299 77.1426 222.238 77.542 223.29 77.8818C224.343 78.2218 225.42 78.5788 226.525 78.9527C227.628 79.3097 228.706 79.726 229.758 80.2019C230.811 80.6775 231.751 81.2812 232.578 82.012C233.406 82.7256 234.071 83.6096 234.569 84.6633C235.087 85.7001 235.346 86.9748 235.346 88.4876C235.346 90.1021 235.062 91.6149 234.493 93.0255C233.94 94.4362 233.129 95.6682 232.061 96.7222C230.991 97.7759 229.672 98.6088 228.102 99.2207C226.549 99.8153 224.782 100.113 222.799 100.113C221.609 100.113 220.452 99.994 219.333 99.756C218.211 99.5349 217.151 99.2207 216.149 98.8127C215.15 98.3878 214.21 97.8863 213.331 97.3086C212.468 96.7136 211.692 96.0507 211.002 95.3198L212.579 92.7196C212.735 92.5154 212.917 92.3457 213.124 92.2095C213.347 92.0736 213.598 92.0056 213.873 92.0056C214.235 92.0056 214.649 92.1926 215.115 92.5664C215.599 92.9403 216.185 93.357 216.874 93.8157C217.582 94.2579 218.418 94.6655 219.385 95.0394C220.367 95.4133 221.557 95.6002 222.954 95.6002C224.093 95.6002 225.109 95.4561 226.007 95.167C226.903 94.8611 227.655 94.4362 228.257 93.8923C228.878 93.3314 229.352 92.6599 229.681 91.8784C230.008 91.0965 230.171 90.2297 230.171 89.2778C230.171 88.2072 229.921 87.3318 229.422 86.652C228.921 85.9722 228.257 85.4028 227.429 84.9437C226.601 84.485 225.662 84.0938 224.61 83.771C223.557 83.4482 222.48 83.1167 221.375 82.7766C220.272 82.4197 219.194 82.012 218.143 81.5529C217.089 81.0942 216.149 80.4992 215.322 79.7684C214.494 79.0206 213.829 78.0942 213.331 76.9895C212.83 75.8679 212.579 74.491 212.579 72.8596C212.579 71.5507 212.838 70.2845 213.356 69.0608C213.873 67.8371 214.624 66.7579 215.607 65.8232C216.607 64.8712 217.832 64.1149 219.281 63.5541C220.73 62.9763 222.385 62.6873 224.248 62.6873C226.334 62.6873 228.249 63.0188 229.991 63.6817C231.751 64.3273 233.276 65.2624 234.569 66.4861L233.224 69.0608ZM268.251 67.6333H256.454V99.7049H250.969V67.6333H239.121V63.0953H268.251V67.6333ZM284.899 80.7372C286.315 80.7372 287.556 80.5672 288.624 80.2275C289.711 79.8874 290.617 79.4114 291.342 78.7995C292.066 78.1708 292.609 77.4317 292.971 76.5818C293.333 75.7147 293.515 74.7631 293.515 73.7263C293.515 71.619 292.807 70.0297 291.394 68.9587C289.997 67.8881 287.892 67.3529 285.081 67.3529H279.88V80.7372H284.899ZM302.232 99.7049H297.317C296.334 99.7049 295.618 99.3224 295.171 98.5578L285.986 85.8615C285.694 85.4366 285.373 85.1393 285.03 84.9692C284.684 84.7823 284.166 84.6888 283.477 84.6888H279.88V99.7049H274.371V63.0953H285.081C287.478 63.0953 289.539 63.3416 291.263 63.8345C293.006 64.3104 294.438 64.9989 295.558 65.8994C296.696 66.7834 297.532 67.854 298.068 69.1119C298.619 70.3697 298.896 71.78 298.896 73.3438C298.896 74.6186 298.697 75.8168 298.3 76.9384C297.905 78.0604 297.317 79.0717 296.541 79.9722C295.783 80.8562 294.852 81.6209 293.747 82.2669C292.644 82.9129 291.394 83.4054 289.997 83.7455C290.686 84.1535 291.282 84.723 291.781 85.4538L302.232 99.7049ZM330.839 95.2943L330.812 99.7049H307.787V63.0953H330.812V67.5056H313.324V79.1055H327.397V83.363H313.324V95.2943H330.839ZM361.476 95.2943L361.451 99.7049H338.426V63.0953H361.451V67.5056H343.963V79.1055H358.036V83.363H343.963V95.2943H361.476Z" fill="#231F20"/>
</g>
</g>
<defs>
<clipPath id="clip0_425_115">
<rect width="361.086" height="182.432" fill="white" transform="translate(0.457031 0.945946)"/>
</clipPath>
</defs>
</svg>
